<?xml version="1.0" encoding="UTF-8" standalone="no"?>
<svg
   xmlns:dc="http://purl.org/dc/elements/1.1/"
   xmlns:cc="http://creativecommons.org/ns#"
   xmlns:rdf="http://www.w3.org/1999/02/22-rdf-syntax-ns#"
   xmlns:svg="http://www.w3.org/2000/svg"
   xmlns="http://www.w3.org/2000/svg"
   id="svg208"
   xml:space="preserve"
   viewBox="0 0 550 445"
   height="445"
   width="550"
   version="1.1"><metadata
     id="metadata212"><rdf:RDF><cc:Work
         rdf:about=""><dc:format>image/svg+xml</dc:format><dc:type
           rdf:resource="http://purl.org/dc/dcmitype/StillImage" /></cc:Work></rdf:RDF></metadata><defs
     id="defs4"><style
       id="style2"
       type="text/css">@import url(&quot;https://fonts.googleapis.com/css2?family=Pompiere:wght@400&quot;);@import url(&quot;https://fonts.googleapis.com/css2?family=Pompiere:wght@400&quot;);</style></defs><defs
     id="defs6" /><g
     id="background"
     transform="matrix(1 0 0 1 275.5 223)"><linearGradient
       y2="445"
       x2="0"
       y1="0"
       x1="0"
       gradientTransform="matrix(1 0 0 1 -275 -222.5)"
       gradientUnits="userSpaceOnUse"
       id="SVGID_1"><stop
         id="stop8"
         style="stop-color:rgb(254,252,246);stop-opacity: 1"
         offset="0%" /></linearGradient><rect
       id="rect11"
       height="445"
       width="550"
       ry="0"
       rx="0"
       y="-222.5"
       x="-275"
       style="stroke: none; stroke-width: 1; stroke-dasharray: none; stroke-linecap: butt; stroke-dashoffset: 0; stroke-linejoin: miter; stroke-miterlimit: 4; fill: url(#SVGID_1); fill-rule: nonzero; opacity: 1;" /></g><g
     id="g20"
     transform="matrix(1 0 0 1 275.5 223)"><linearGradient
       y2="445"
       x2="0"
       y1="0"
       x1="0"
       gradientTransform="matrix(1 0 0 1 -275 -222.5)"
       gradientUnits="userSpaceOnUse"
       id="linearGradient16"><stop
         id="stop14"
         style="stop-color:rgb(254,252,246);stop-opacity: 1"
         offset="0%" /></linearGradient><rect
       id="rect18"
       height="445"
       width="550"
       ry="0"
       rx="0"
       y="-222.5"
       x="-275"
       style="stroke: none; stroke-width: 1; stroke-dasharray: none; stroke-linecap: butt; stroke-dashoffset: 0; stroke-linejoin: miter; stroke-miterlimit: 4; fill: url(#SVGID_1); fill-rule: nonzero; opacity: 1;" /></g><g
     id="logo-slogan"
     style=""
     transform="matrix(1.5 0 0 1.5 346.76 257.34)"><linearGradient
       y2="22.599999999999998"
       x2="0"
       y1="0"
       x1="0"
       gradientTransform="matrix(1 0 0 1 -112.4 -11.3)"
       gradientUnits="userSpaceOnUse"
       id="SVGID_6"><stop
         id="stop22"
         style="stop-color:rgb(13,71,161);stop-opacity: 1"
         offset="0%" /></linearGradient><text
       id="text27"
       style="stroke: none; stroke-width: 1; stroke-dasharray: none; stroke-linecap: butt; stroke-dashoffset: 0; stroke-linejoin: miter; stroke-miterlimit: 4; fill: url(#SVGID_6); fill-rule: nonzero; opacity: 1; white-space: pre;"
       font-weight="normal"
       font-style="normal"
       font-size="20"
       font-family="Pompiere"
       xml:space="preserve"><tspan
         id="tspan25"
         y="6.28"
         x="-112.4">LET'S STAND FOR INDIA</tspan></text>
</g><g
     id="icon"
     transform="matrix(0.23 0 0 0.23 93.9 222.5)"><g
       id="g197"
       style=""><g
         id="icon_piece"
         transform="matrix(1 0 0 1 -13.65 -33.44)"><path
           id="path30"
           stroke-linecap="round"
           d="m 311.139 301.352 h -137.574 c -5.523 0 -10 -4.477 -10 -10 v -137.574 c 0 -5.523 4.477 -10 10 -10 h 137.574 c 5.523 0 10 4.477 10 10 v 137.574 c 0 5.523 -4.477 10 -10 10 z"
           transform=" translate(-242.35, -222.56)"
           style="stroke: none; stroke-width: 1; stroke-dasharray: none; stroke-linecap: butt; stroke-dashoffset: 0; stroke-linejoin: miter; stroke-miterlimit: 4; fill: rgb(252,193,109); fill-rule: nonzero; opacity: 1;" /></g><g
         id="g35"
         transform="matrix(1 0 0 1 47.8 -33.44)"><path
           id="path33"
           stroke-linecap="round"
           d="m 321.142 153.774 v 137.58 c 0 5.52 -4.48 10 -10 10 h -24.66 c 5.53 0 10 -4.48 10 -10 v -137.58 c 0 -5.52 -4.47 -10 -10 -10 h 24.66 c 5.52 0 10 4.48 10 10 z"
           transform=" translate(-303.81, -222.56)"
           style="stroke: none; stroke-width: 1; stroke-dasharray: none; stroke-linecap: butt; stroke-dashoffset: 0; stroke-linejoin: miter; stroke-miterlimit: 4; fill: rgb(252,180,77); fill-rule: nonzero; opacity: 1;" /></g><g
         id="g39"
         transform="matrix(1 0 0 1 10 27.55)"><circle
           id="circle37"
           r="28.963"
           cy="0"
           cx="0"
           style="stroke: none; stroke-width: 1; stroke-dasharray: none; stroke-linecap: butt; stroke-dashoffset: 0; stroke-linejoin: miter; stroke-miterlimit: 4; fill: rgb(253,176,160); fill-rule: nonzero; opacity: 1;" /></g><g
         id="g43"
         transform="matrix(1 0 0 1 16.1 27.55)"><path
           id="path41"
           stroke-linecap="round"
           d="m 294.962 283.564 c 0 15.99 -12.96 28.96 -28.96 28.96 c -2.38 0 -4.69 -0.29 -6.9 -0.84 c 7.39 -5.24 12.21 -13.86 12.21 -23.62 c 0 -13.61 -9.39 -25.04 -22.06 -28.13 c 4.73 -3.37 10.51 -5.34 16.75 -5.34 c 16 0 28.96 12.97 28.96 28.97 z"
           transform=" translate(-272.11, -283.56)"
           style="stroke: none; stroke-width: 1; stroke-dasharray: none; stroke-linecap: butt; stroke-dashoffset: 0; stroke-linejoin: miter; stroke-miterlimit: 4; fill: rgb(249,160,143); fill-rule: nonzero; opacity: 1;" /></g><g
         id="g47"
         transform="matrix(1 0 0 1 139.78 189.44)"><path
           id="path45"
           stroke-linecap="round"
           d="m 376.034 386.385 l -8.923 118.129 h 57.351 v -118.129 z"
           transform=" translate(-395.79, -445.45)"
           style="stroke: none; stroke-width: 1; stroke-dasharray: none; stroke-linecap: butt; stroke-dashoffset: 0; stroke-linejoin: miter; stroke-miterlimit: 4; fill: rgb(100,185,252); fill-rule: nonzero; opacity: 1;" /></g><g
         id="g51"
         transform="matrix(1 0 0 1 142.97 147.09)"><path
           id="path49"
           stroke-linecap="round"
           d="m 424.462 419.808 v -33.423 h -48.428 l -2.525 33.423 z"
           transform=" translate(-398.99, -403.1)"
           style="stroke: none; stroke-width: 1; stroke-dasharray: none; stroke-linecap: butt; stroke-dashoffset: 0; stroke-linejoin: miter; stroke-miterlimit: 4; fill: rgb(49,167,251); fill-rule: nonzero; opacity: 1;" /></g><g
         id="g55"
         transform="matrix(1 0 0 1 168.29 189.44)"><path
           id="path53"
           stroke-linecap="round"
           d="m 453.913 386.385 v 118.129 h -50.268 l -8.963 -118.129 z"
           transform=" translate(-424.3, -445.45)"
           style="stroke: none; stroke-width: 1; stroke-dasharray: none; stroke-linecap: butt; stroke-dashoffset: 0; stroke-linejoin: miter; stroke-miterlimit: 4; fill: rgb(169,216,252); fill-rule: nonzero; opacity: 1;" /></g><g
         id="g59"
         transform="matrix(1 0 0 1 168.29 189.44)"><path
           id="path57"
           stroke-linecap="round"
           d="m 453.913 386.385 h -0.001 v -0.001 l -59.23 0.001 l 2.536 33.423 h 19.467 c 7.797 0 14.117 6.32 14.117 14.117 v 70.589 h 23.11 z"
           transform=" translate(-424.3, -445.45)"
           style="stroke: none; stroke-width: 1; stroke-dasharray: none; stroke-linecap: butt; stroke-dashoffset: 0; stroke-linejoin: miter; stroke-miterlimit: 4; fill: rgb(141,202,252); fill-rule: nonzero; opacity: 1;" /></g><g
         id="g63"
         transform="matrix(1 0 0 1 139.7 -157.89)"><path
           id="path61"
           stroke-linecap="round"
           d="m 441.52 70.88 v 100.276 h -38.58 v -24.469 h -23.78 c -16.156 0 -29.253 -13.097 -29.253 -29.253 v -46.554 c 0 -25.298 20.508 -45.807 45.807 -45.807 c 25.298 0 45.806 20.508 45.806 45.807 z"
           transform=" translate(-395.71, -98.11)"
           style="stroke: none; stroke-width: 1; stroke-dasharray: none; stroke-linecap: butt; stroke-dashoffset: 0; stroke-linejoin: miter; stroke-miterlimit: 4; fill: rgb(253,176,160); fill-rule: nonzero; opacity: 1;" /></g><g
         id="g67"
         transform="matrix(1 0 0 1 177.14 -158.59)"><circle
           id="circle65"
           r="19.194"
           cy="0"
           cx="0"
           style="stroke: none; stroke-width: 1; stroke-dasharray: none; stroke-linecap: butt; stroke-dashoffset: 0; stroke-linejoin: miter; stroke-miterlimit: 4; fill: rgb(253,176,160); fill-rule: nonzero; opacity: 1;" /></g><g
         id="g71"
         transform="matrix(1 0 0 1 157.58 23.63)"><path
           id="path69"
           stroke-linecap="round"
           d="m 367.447 387.772 l 12.305 -194.424 c 0.966 -15.265 13.629 -27.152 28.925 -27.152 h 28.165 c 10.125 0 18.393 8.095 18.606 18.218 l 4.295 203.568 c 0.059 2.802 -2.196 5.105 -4.999 5.105 h -82.307 c -2.885 0.001 -5.172 -2.435 -4.99 -5.315 z"
           transform=" translate(-413.59, -279.64)"
           style="stroke: none; stroke-width: 1; stroke-dasharray: none; stroke-linecap: butt; stroke-dashoffset: 0; stroke-linejoin: miter; stroke-miterlimit: 4; fill: rgb(239,245,246); fill-rule: nonzero; opacity: 1;" /></g><g
         id="g75"
         transform="matrix(1 0 0 1 159.04 23.63)"><path
           id="path73"
           stroke-linecap="round"
           d="m 459.742 387.984 c 0.06 2.8 -2.19 5.1 -5 5.1 h -27.03 c 2.81 0 5.06 -2.3 5 -5.1 l -1.51 -71.48 c 0 -11.03 -12.47 -15.07 -17.61 -7.85 c -4.48 6.29 -11.88 15.64 -11.88 15.64 c -7.48 10.03 -18.99 16.41 -31.36 17.54 l 3.81 -60.13 c 19.62 -21.8 54.97 -63.46 54.97 -63.46 l -0.71 -33.83 c -0.22 -10.12 -8.48 -18.22 -18.61 -18.22 h 27.03 c 10.13 0 18.39 8.1 18.61 18.22 z"
           transform=" translate(-415.05, -279.64)"
           style="stroke: none; stroke-width: 1; stroke-dasharray: none; stroke-linecap: butt; stroke-dashoffset: 0; stroke-linejoin: miter; stroke-miterlimit: 4; fill: rgb(203,229,231); fill-rule: nonzero; opacity: 1;" /></g><g
         id="g79"
         transform="matrix(1 0 0 1 111.65 5.34)"><path
           id="path77"
           stroke-linecap="round"
           d="m 300.79 261.277 l 52.335 6 l 44.628 -59.91 c 5.449 -7.315 14.151 -11.681 23.278 -11.681 c 6.283 0 12.272 1.987 17.319 5.746 c 12.829 9.558 15.49 27.77 5.934 40.597 l -54.605 73.303 c -5.449 7.314 -14.145 11.68 -23.264 11.68 c -1.104 0 -2.219 -0.064 -3.313 -0.19 l -68.929 -7.902 c -5.488 -0.629 -9.426 -5.588 -8.796 -11.076 l 4.339 -37.774 c 0.631 -5.485 5.588 -9.422 11.074 -8.793 z"
           transform=" translate(-367.66, -261.35)"
           style="stroke: none; stroke-width: 1; stroke-dasharray: none; stroke-linecap: butt; stroke-dashoffset: 0; stroke-linejoin: miter; stroke-miterlimit: 4; fill: rgb(239,245,246); fill-rule: nonzero; opacity: 1;" /></g><g
         id="g83"
         transform="matrix(1 0 0 1 196.92 -52.13)"><path
           id="path81"
           stroke-linecap="round"
           d="m 491.598 181.964 c -1.189 -9.024 -8.875 -15.768 -17.978 -15.768 h -60.805 v 28.852 c 35.155 11.54 45.295 56.096 66.26 44.63 c 16.122 -8.816 15.004 -38.882 12.523 -57.714 z"
           transform=" translate(-452.93, -203.87)"
           style="stroke: none; stroke-width: 1; stroke-dasharray: none; stroke-linecap: butt; stroke-dashoffset: 0; stroke-linejoin: miter; stroke-miterlimit: 4; fill: rgb(239,245,246); fill-rule: nonzero; opacity: 1;" /></g><g
         id="g87"
         transform="matrix(1 0 0 1 216.76 -52.14)"><path
           id="path85"
           stroke-linecap="round"
           d="m 479.072 239.674 c -6.45 3.53 -11.87 1.75 -17.32 -2.73 c 12.13 -11.18 11 -37.77 8.73 -54.98 c -1.19 -9.02 -8.88 -15.77 -17.98 -15.77 h 21.12 c 9.1 0 16.79 6.75 17.98 15.77 c 2.48 18.83 3.6 48.9 -12.53 57.71 z"
           transform=" translate(-472.77, -203.87)"
           style="stroke: none; stroke-width: 1; stroke-dasharray: none; stroke-linecap: butt; stroke-dashoffset: 0; stroke-linejoin: miter; stroke-miterlimit: 4; fill: rgb(203,229,231); fill-rule: nonzero; opacity: 1;" /></g><g
         id="g91"
         transform="matrix(1 0 0 1 -13.65 -90.17)"><path
           id="path89"
           stroke-linecap="round"
           d="m 257.015 187.896 h -29.326 c -2.761 0 -5 -2.239 -5 -5 v -39.119 h 39.326 v 39.119 c 0 2.762 -2.239 5 -5 5 z"
           transform=" translate(-242.35, -165.84)"
           style="stroke: none; stroke-width: 1; stroke-dasharray: none; stroke-linecap: butt; stroke-dashoffset: 0; stroke-linejoin: miter; stroke-miterlimit: 4; fill: rgb(251,153,39); fill-rule: nonzero; opacity: 1;" /></g><g
         id="g95"
         transform="matrix(1 0 0 1 -6.32 -90.17)"><path
           id="path93"
           stroke-linecap="round"
           d="m 262.012 143.774 v 39.12 c 0 2.76 -2.24 5 -5 5 h -19.66 c 2.76 0 5 -2.24 5 -5 v -39.12 z"
           transform=" translate(-249.68, -165.83)"
           style="stroke: none; stroke-width: 1; stroke-dasharray: none; stroke-linecap: butt; stroke-dashoffset: 0; stroke-linejoin: miter; stroke-miterlimit: 4; fill: rgb(249,136,36); fill-rule: nonzero; opacity: 1;" /></g><g
         id="g99"
         transform="matrix(1 0 0 1 -167.09 189.44)"><path
           id="path97"
           stroke-linecap="round"
           d="m 108.67 386.385 l 8.923 118.129 h -57.352 v -118.129 z"
           transform=" translate(-88.92, -445.45)"
           style="stroke: none; stroke-width: 1; stroke-dasharray: none; stroke-linecap: butt; stroke-dashoffset: 0; stroke-linejoin: miter; stroke-miterlimit: 4; fill: rgb(63,89,89); fill-rule: nonzero; opacity: 1;" /></g><g
         id="g103"
         transform="matrix(1 0 0 1 -170.28 147.09)"><path
           id="path101"
           stroke-linecap="round"
           d="m 111.194 419.808 l -2.525 -33.423 h -48.428 v 33.423 z"
           transform=" translate(-85.72, -403.1)"
           style="stroke: none; stroke-width: 1; stroke-dasharray: none; stroke-linecap: butt; stroke-dashoffset: 0; stroke-linejoin: miter; stroke-miterlimit: 4; fill: rgb(56,72,72); fill-rule: nonzero; opacity: 1;" /></g><g
         id="g107"
         transform="matrix(1 0 0 1 -195.6 189.44)"><path
           id="path105"
           stroke-linecap="round"
           d="m 30.79 386.385 v 118.129 h 50.268 l 8.964 -118.129 z"
           transform=" translate(-60.41, -445.45)"
           style="stroke: none; stroke-width: 1; stroke-dasharray: none; stroke-linecap: butt; stroke-dashoffset: 0; stroke-linejoin: miter; stroke-miterlimit: 4; fill: rgb(85,121,131); fill-rule: nonzero; opacity: 1;" /></g><g
         id="g111"
         transform="matrix(1 0 0 1 -195.6 147.09)"><path
           id="path109"
           stroke-linecap="round"
           d="m 87.486 419.808 l 2.536 -33.423 h -59.232 v 33.423 z"
           transform=" translate(-60.41, -403.1)"
           style="stroke: none; stroke-width: 1; stroke-dasharray: none; stroke-linecap: butt; stroke-dashoffset: 0; stroke-linejoin: miter; stroke-miterlimit: 4; fill: rgb(63,89,89); fill-rule: nonzero; opacity: 1;" /></g><g
         id="g115"
         transform="matrix(1 0 0 1 -167.01 -142.89)"><path
           id="path113"
           stroke-linecap="round"
           d="m 43.183 55.073 v 116.082 h 38.581 v -24.469 h 23.78 c 16.156 0 29.253 -13.097 29.253 -29.253 v -62.36 z"
           transform=" translate(-88.99, -113.11)"
           style="stroke: none; stroke-width: 1; stroke-dasharray: none; stroke-linecap: butt; stroke-dashoffset: 0; stroke-linejoin: miter; stroke-miterlimit: 4; fill: rgb(253,176,160); fill-rule: nonzero; opacity: 1;" /></g><g
         id="g119"
         transform="matrix(1 0 0 1 -170.24 -203.54)"><path
           id="path117"
           stroke-linecap="round"
           d="m 141.134 16.291 c -3.248 3.404 -7.136 5.881 -11.577 5.881 l 0.584 -7.714 c 0.421 -5.558 -5.878 -8.953 -10.355 -5.633 c -4.54 3.366 -10.291 6.412 -17.054 7.515 c -10.334 0.936 -23.578 1.609 -40.355 1.609 c -55.28 0 -45.582 54.128 -34.934 79.465 l 21.449 -17.73 s 17.707 -1.464 17.707 -19.498 c 0 0 47.667 23.335 76.01 -0.777 c 8.103 -6.894 10.321 -14.282 9.563 -21.17 l 0.143 0.056 v -17.594 c 0.001 -5.863 -7.134 -8.653 -11.181 -4.41 z"
           transform=" translate(-85.77, -52.46)"
           style="stroke: none; stroke-width: 1; stroke-dasharray: none; stroke-linecap: butt; stroke-dashoffset: 0; stroke-linejoin: miter; stroke-miterlimit: 4; fill: rgb(255,213,151); fill-rule: nonzero; opacity: 1;" /></g><g
         id="g123"
         transform="matrix(1 0 0 1 -130.8 -213.71)"><path
           id="path121"
           stroke-linecap="round"
           d="m 152.312 38.294 l -0.14 -0.06 c 0.76 6.89 -1.46 14.28 -9.56 21.17 c -12.93 11.01 -29.9 12.13 -44.52 10.1 c 8 -1.33 15.81 -4.38 22.53 -10.1 c 8.1 -6.89 10.32 -14.28 9.56 -21.17 l 0.14 0.06 v -16.15 c 4.12 -0.26 7.76 -2.64 10.81 -5.85 c 4.05 -4.25 11.18 -1.46 11.18 4.41 z"
           transform=" translate(-125.2, -42.29)"
           style="stroke: none; stroke-width: 1; stroke-dasharray: none; stroke-linecap: butt; stroke-dashoffset: 0; stroke-linejoin: miter; stroke-miterlimit: 4; fill: rgb(252,193,109); fill-rule: nonzero; opacity: 1;" /></g><g
         id="g127"
         transform="matrix(1 0 0 1 -214.45 -158.59)"><circle
           id="circle125"
           r="19.194"
           cy="0"
           cx="0"
           style="stroke: none; stroke-width: 1; stroke-dasharray: none; stroke-linecap: butt; stroke-dashoffset: 0; stroke-linejoin: miter; stroke-miterlimit: 4; fill: rgb(253,176,160); fill-rule: nonzero; opacity: 1;" /></g><g
         id="g131"
         transform="matrix(1 0 0 1 -184.89 23.63)"><path
           id="path129"
           stroke-linecap="round"
           d="m 117.256 387.772 l -12.305 -194.424 c -0.966 -15.265 -13.629 -27.152 -28.925 -27.152 h -28.165 c -10.125 0 -18.393 8.095 -18.606 18.218 l -4.295 203.568 c -0.059 2.802 2.196 5.105 4.999 5.105 h 82.307 c 2.886 0.001 5.172 -2.435 4.99 -5.315 z"
           transform=" translate(-71.11, -279.64)"
           style="stroke: none; stroke-width: 1; stroke-dasharray: none; stroke-linecap: butt; stroke-dashoffset: 0; stroke-linejoin: miter; stroke-miterlimit: 4; fill: rgb(254,226,101); fill-rule: nonzero; opacity: 1;" /></g><g
         id="g135"
         transform="matrix(1 0 0 1 -183.65 23.63)"><path
           id="path133"
           stroke-linecap="round"
           d="m 117.259 387.774 l -12.31 -194.43 c -0.96 -15.26 -13.63 -27.15 -28.92 -27.15 h -27.25 c 15.3 0 27.96 11.89 28.93 27.15 l 3.533 55.849 l -51.841 -66.789 c -0.08 0.66 -0.14 1.33 -0.15 2.01 l -1.81 85.98 l 15.73 21.12 c 5.62 7.54 14.59 12.05 24 12.05 h 0.053 c 3.43 -0.007 6.684 1.505 8.733 4.256 l 7.936 10.657 c 1.235 1.659 1.962 3.64 2.093 5.704 l 4.023 63.593 c 0.18 2.88 -2.1 5.31 -4.99 5.31 h 27.25 c 2.88 0 5.17 -2.43 4.99 -5.31 z"
           transform=" translate(-72.35, -279.64)"
           style="stroke: none; stroke-width: 1; stroke-dasharray: none; stroke-linecap: butt; stroke-dashoffset: 0; stroke-linejoin: miter; stroke-miterlimit: 4; fill: rgb(253,211,48); fill-rule: nonzero; opacity: 1;" /></g><g
         id="g139"
         transform="matrix(1 0 0 1 -124.1 5.34)"><path
           id="path137"
           stroke-linecap="round"
           d="m 118.37 319.586 c -5.443 0 -10.62 -2.562 -13.917 -6.988 l -60.904 -81.758 c -5.727 -7.687 -4.137 -18.561 3.55 -24.289 c 7.688 -5.726 18.561 -4.138 24.289 3.551 l 54.934 73.744 l 78.041 -8.947 c 9.523 -1.1 18.129 5.744 19.222 15.267 c 1.092 9.523 -5.744 18.129 -15.268 19.221 c 0.001 0 -89.29 10.199 -89.947 10.199 z"
           transform=" translate(-131.9, -261.35)"
           style="stroke: none; stroke-width: 1; stroke-dasharray: none; stroke-linecap: butt; stroke-dashoffset: 0; stroke-linejoin: miter; stroke-miterlimit: 4; fill: rgb(253,176,160); fill-rule: nonzero; opacity: 1;" /></g><g
         id="g143"
         transform="matrix(1 0 0 1 -60.61 38.26)"><path
           id="path141"
           stroke-linecap="round"
           d="m 223.585 290.166 c -1.092 -9.523 -9.698 -16.367 -19.222 -15.267 l -37.28 4.274 l 3.104 34.586 l 38.13 -4.371 c 9.525 -1.093 16.36 -9.699 15.268 -19.222 z"
           transform=" translate(-195.39, -294.27)"
           style="stroke: none; stroke-width: 1; stroke-dasharray: none; stroke-linecap: butt; stroke-dashoffset: 0; stroke-linejoin: miter; stroke-miterlimit: 4; fill: rgb(159,247,211); fill-rule: nonzero; opacity: 1;" /></g><g
         id="g147"
         transform="matrix(1 0 0 1 -185.78 -20.28)"><path
           id="path145"
           stroke-linecap="round"
           d="m 73.088 281.595 c -4.393 3.272 -10.607 2.364 -13.879 -2.029 l -27.785 -37.298 c -11.23 -15.075 -8.113 -36.4 6.962 -47.63 c 15.075 -11.228 36.4 -8.112 47.63 6.963 l 27.785 37.298 c 3.273 4.393 2.364 10.607 -2.029 13.879 z"
           transform=" translate(-70.22, -235.73)"
           style="stroke: none; stroke-width: 1; stroke-dasharray: none; stroke-linecap: butt; stroke-dashoffset: 0; stroke-linejoin: miter; stroke-miterlimit: 4; fill: rgb(239,245,246); fill-rule: nonzero; opacity: 1;" /></g><g
         id="g151"
         transform="matrix(1 0 0 1 -182.96 -29.75)"><path
           id="path149"
           stroke-linecap="round"
           d="m 111.772 252.774 l -15.89 11.84 c 2.82 -3.44 3.05 -8.48 0.27 -12.2 l -27.78 -37.3 c -9 -12.08 -24.5 -16.48 -38.05 -11.97 c 2.12 -3.2 4.81 -6.09 8.06 -8.51 c 15.08 -11.22 36.4 -8.11 47.63 6.97 l 27.79 37.29 c 3.27 4.4 2.36 10.61 -2.03 13.88 z"
           transform=" translate(-73.04, -226.26)"
           style="stroke: none; stroke-width: 1; stroke-dasharray: none; stroke-linecap: butt; stroke-dashoffset: 0; stroke-linejoin: miter; stroke-miterlimit: 4; fill: rgb(203,229,231); fill-rule: nonzero; opacity: 1;" /></g><g
         id="g155"
         transform="matrix(1 0 0 1 -32.31 27.55)"><circle
           id="circle153"
           r="28.963"
           cy="0"
           cx="0"
           style="stroke: none; stroke-width: 1; stroke-dasharray: none; stroke-linecap: butt; stroke-dashoffset: 0; stroke-linejoin: miter; stroke-miterlimit: 4; fill: rgb(196,250,227); fill-rule: nonzero; opacity: 1;" /></g><g
         id="g159"
         transform="matrix(1 0 0 1 -27.46 27.55)"><path
           id="path157"
           stroke-linecap="round"
           d="m 252.662 283.564 c 0 15.99 -12.97 28.96 -28.96 28.96 c -7.41 0 -14.16 -2.78 -19.28 -7.36 c 15.37 -0.69 27.62 -13.38 27.62 -28.92 c 0 -8.59 -3.74 -16.31 -9.68 -21.61 c 0.44 -0.03 0.89 -0.04 1.34 -0.04 c 15.99 0 28.96 12.97 28.96 28.97 z"
           transform=" translate(-228.54, -283.56)"
           style="stroke: none; stroke-width: 1; stroke-dasharray: none; stroke-linecap: butt; stroke-dashoffset: 0; stroke-linejoin: miter; stroke-miterlimit: 4; fill: rgb(159,247,211); fill-rule: nonzero; opacity: 1;" /></g><g
         id="g163"
         transform="matrix(1 0 0 1 -136.63 -129.04)"><path
           id="path161"
           stroke-linecap="round"
           d="m 97.294 146.687 s -2.045 -34.751 35.745 -43.162 c 2.651 -0.59 5.296 1.035 5.954 3.67 c 2.241 8.98 5.769 28.895 -4.166 37.692 c -13.038 11.543 -37.533 1.8 -37.533 1.8 z"
           transform=" translate(-119.38, -126.97)"
           style="stroke: none; stroke-width: 1; stroke-dasharray: none; stroke-linecap: butt; stroke-dashoffset: 0; stroke-linejoin: miter; stroke-miterlimit: 4; fill: rgb(239,245,246); fill-rule: nonzero; opacity: 1;" /></g><g
         id="g167"
         transform="matrix(1 0 0 1 -131.34 -129.04)"><path
           id="path165"
           stroke-linecap="round"
           d="m 134.832 144.884 c -7.49 6.63 -18.75 6.24 -26.99 4.71 c 3.36 -0.84 6.55 -2.32 9.25 -4.71 c 9.83 -8.7 6.47 -28.3 4.23 -37.41 c 3.4 -1.61 7.29 -2.96 11.72 -3.95 c 2.65 -0.59 5.29 1.03 5.95 3.67 c 2.24 8.98 5.77 28.9 -4.16 37.69 z"
           transform=" translate(-124.66, -126.97)"
           style="stroke: none; stroke-width: 1; stroke-dasharray: none; stroke-linecap: butt; stroke-dashoffset: 0; stroke-linejoin: miter; stroke-miterlimit: 4; fill: rgb(203,229,231); fill-rule: nonzero; opacity: 1;" /></g><g
         id="g171"
         transform="matrix(1 0 0 1 112.55 -125.05)"><path
           id="path169"
           stroke-linecap="round"
           d="m 358.755 148.319 h 26.959 c 2.761 0 5 -2.239 5 -5 v -16.301 c 0 -5.076 -3.803 -9.347 -8.846 -9.933 l -29.876 -3.472 c -2.97 -0.345 -5.577 1.976 -5.577 4.967 v 17.399 c 0 6.816 5.525 12.34 12.34 12.34 z"
           transform=" translate(-368.56, -130.95)"
           style="stroke: none; stroke-width: 1; stroke-dasharray: none; stroke-linecap: butt; stroke-dashoffset: 0; stroke-linejoin: miter; stroke-miterlimit: 4; fill: rgb(159,247,211); fill-rule: nonzero; opacity: 1;" /></g><g
         id="g175"
         transform="matrix(1 0 0 1 123.62 -123.99)"><path
           id="path173"
           stroke-linecap="round"
           d="m 390.712 127.014 v 16.31 c 0 2.76 -2.24 5 -5 5 h -17.17 c 2.76 0 5 -2.24 5 -5 v -19.99 c 0 -3.04 -1.36 -5.79 -3.54 -7.63 l 11.87 1.38 c 5.04 0.59 8.84 4.86 8.84 9.93 z"
           transform=" translate(-379.63, -132.01)"
           style="stroke: none; stroke-width: 1; stroke-dasharray: none; stroke-linecap: butt; stroke-dashoffset: 0; stroke-linejoin: miter; stroke-miterlimit: 4; fill: rgb(35,241,168); fill-rule: nonzero; opacity: 1;" /></g><g
         id="g179"
         transform="matrix(1 0 0 1 121.41 -157.14)"><path
           id="path177"
           stroke-linecap="round"
           d="m 377.399 106.361 h 0.091 c 4.142 0 7.455 -3.357 7.455 -7.5 s -3.404 -7.5 -7.546 -7.5 s -7.5 3.357 -7.5 7.5 s 3.358 7.5 7.5 7.5 z"
           transform=" translate(-377.42, -98.86)"
           style="stroke: none; stroke-width: 1; stroke-dasharray: none; stroke-linecap: butt; stroke-dashoffset: 0; stroke-linejoin: miter; stroke-miterlimit: 4; fill: rgb(0,0,0); fill-rule: nonzero; opacity: 1;" /></g><g
         id="g183"
         transform="matrix(1 0 0 1 0 0)"><path
           id="path181"
           stroke-linecap="round"
           d="m 20.632 238.519 l -1.49 69.637 c -0.087 4.142 3.199 7.569 7.34 7.656 c 0.054 0.001 0.107 0.002 0.161 0.002 c 4.068 0 7.409 -3.255 7.496 -7.342 l 1.026 -48.626 l 18.028 24.201 c 3.415 4.584 8.671 7.006 13.99 7.006 c 3.346 0 6.713 -0.971 9.667 -2.953 l 21.586 28.978 c 1.975 2.651 4.452 4.844 7.24 6.5 l 3.925 62.01 h -77.09 l 0.869 -41.203 c 0.087 -4.142 -3.199 -7.569 -7.34 -7.656 c -4.161 -0.067 -7.569 3.198 -7.657 7.34 l -0.923 43.756 c -0.071 3.388 1.195 6.588 3.566 9.009 c 0.689 0.704 1.452 1.304 2.263 1.818 v 105.864 c 0 4.143 3.358 7.5 7.5 7.5 s 7.5 -3.357 7.5 -7.5 v -103.929 h 43.132 l -7.841 103.36 c -0.313 4.13 2.781 7.732 6.911 8.046 c 0.193 0.015 0.385 0.021 0.575 0.021 c 3.885 0 7.172 -2.995 7.471 -6.933 l 7.929 -104.494 h 5.756 l 7.893 104.491 c 0.297 3.938 3.585 6.936 7.471 6.936 c 0.189 0 0.381 -0.007 0.573 -0.021 c 4.13 -0.312 7.226 -3.913 6.914 -8.043 l -7.884 -104.378 c 1.571 -0.673 3.005 -1.664 4.193 -2.928 c 2.354 -2.507 3.579 -5.913 3.361 -9.345 l -3.826 -60.451 c 5.568 -0.595 24.085 -2.68 87.979 -9.977 c 4.528 2.021 9.536 3.154 14.807 3.154 c 7.876 0 15.17 -2.518 21.137 -6.78 c 6.149 4.393 13.514 6.78 21.166 6.78 c 4.789 0 9.516 -0.958 13.899 -2.764 c 0.49 0.908 1.051 1.784 1.706 2.609 c 2.907 3.661 7.067 5.971 11.711 6.503 l 68.925 7.902 c 0.353 0.041 0.711 0.061 1.068 0.092 l -3.35 52.933 c -0.217 3.432 1.008 6.838 3.361 9.345 c 1.187 1.265 2.622 2.255 4.193 2.928 l -7.885 104.377 c -0.312 4.131 2.783 7.732 6.914 8.044 c 0.192 0.015 0.383 0.021 0.573 0.021 c 3.886 0 7.173 -2.997 7.471 -6.935 l 7.893 -104.492 h 5.755 l 7.929 104.494 c 0.299 3.938 3.586 6.933 7.471 6.933 c 0.19 0 0.382 -0.007 0.575 -0.021 c 4.13 -0.313 7.225 -3.916 6.911 -8.046 l -7.843 -103.359 h 43.132 v 103.927 c 0 4.143 3.358 7.5 7.5 7.5 s 7.5 -3.357 7.5 -7.5 v -105.866 c 0.81 -0.514 1.574 -1.114 2.263 -1.818 c 2.371 -2.422 3.637 -5.621 3.566 -9.009 l -2.965 -140.532 c 2.569 1.152 5.262 1.822 8.104 1.822 c 3.228 0 6.647 -0.861 10.293 -2.855 c 19.243 -10.523 19.517 -41.305 16.358 -65.273 c -1.674 -12.707 -12.599 -22.289 -25.413 -22.289 h -24.6 v -39.805 c 2.934 -2.166 5.418 -4.931 7.288 -8.189 c 3.549 -6.184 4.479 -13.38 2.616 -20.262 c -1.633 -6.034 -5.226 -11.021 -9.903 -14.473 v -5.087 c 0 -29.394 -23.913 -53.307 -53.307 -53.307 s -53.307 23.913 -53.307 53.307 v 39.054 c -2.223 2.317 -3.492 5.411 -3.492 8.646 v 17.399 c 0 10.94 8.9 19.841 19.84 19.841 h 26.959 c 2.238 0 4.335 -0.599 6.154 -1.633 h 3.572 v 7.01 c -12.851 5.032 -22.253 17.16 -23.172 31.678 l -2.501 39.507 l -20.077 26.952 l -21.05 -2.413 v -37.759 c 0 -4.143 -3.358 -7.5 -7.5 -7.5 s -7.5 3.357 -7.5 7.5 v 36.039 l -11.995 -1.375 c -4.113 -0.47 -8.058 0.541 -11.315 2.598 c -6.627 -5.928 -15.279 -9.327 -24.326 -9.327 c -7.676 0 -15.03 2.376 -21.176 6.773 c -5.966 -4.258 -13.256 -6.773 -21.128 -6.773 c -14.916 0 -27.762 9.007 -33.403 21.865 l -19.232 2.205 v -117.389 c 0 -1.379 1.122 -2.5 2.5 -2.5 h 41.624 v 31.619 c 0 6.893 5.607 12.5 12.5 12.5 h 29.326 c 6.893 0 12.5 -5.607 12.5 -12.5 v -31.619 h 41.625 c 1.378 0 2.5 1.121 2.5 2.5 v 29.457 c 0 4.143 3.358 7.5 7.5 7.5 s 7.5 -3.357 7.5 -7.5 v -29.457 c 0 -9.649 -7.851 -17.5 -17.5 -17.5 h -137.576 c -9.649 0 -17.5 7.851 -17.5 17.5 v 119.109 l -26.307 3.016 l -13.035 -17.498 c 3.457 -2.764 5.716 -6.661 6.359 -11.062 c 0.673 -4.604 -0.487 -9.194 -3.267 -12.925 l -5.191 -6.969 l -2.188 -34.575 c -0.919 -14.518 -10.321 -26.646 -23.172 -31.678 v -7.01 h 6.01 c 0.204 0 0.404 -0.015 0.604 -0.03 c 3.279 1.151 11.93 3.827 21.46 3.827 c 7.708 0 15.991 -1.753 22.462 -7.482 c 12.638 -11.19 9.479 -33.074 6.471 -45.122 c -0.655 -2.626 -2.083 -4.834 -3.973 -6.462 v -29.953 c 1.768 -1.15 3.499 -2.418 5.173 -3.843 c 10.611 -9.027 12.672 -18.826 12.298 -25.976 c 0.032 -0.28 0.048 -0.564 0.048 -0.851 v -17.592 c 0 -5.734 -3.433 -10.814 -8.746 -12.942 c -4.769 -1.91 -10.084 -1.068 -14.005 2.103 c -1.026 -3.392 -3.335 -6.293 -6.598 -8.093 c -4.866 -2.686 -10.67 -2.291 -15.148 1.031 c -4.382 3.248 -8.938 5.299 -13.546 6.096 c -11.5 1.03 -24.752 1.553 -39.396 1.553 c -19.116 0 -33.161 5.931 -41.744 17.627 c -14.092 19.2 -8.708 49.404 -4.854 62.363 c -1.863 6.882 -0.934 14.078 2.616 20.262 c 3.55 6.185 9.295 10.616 16.177 12.479 c 0.368 0.1 0.74 0.178 1.11 0.261 v 38.312 c -8.093 4.323 -13.721 12.788 -13.927 22.502 l -0.412 19.523 v 0.006 c -1.832 3.784 -3.1 7.864 -3.726 12.143 c -1.138 7.788 -0.065 15.555 3.014 22.591 z m 209.557 -87.241 h 24.326 v 29.119 h -24.326 z m 165.525 -118.705 c 21.073 0 38.223 17.105 38.303 38.16 c -2.581 -0.084 -5.215 0.205 -7.834 0.914 c -6.077 1.644 -11.397 5.408 -14.981 10.599 c -2.353 3.409 -1.497 8.08 1.912 10.433 c 3.41 2.354 8.08 1.498 10.433 -1.911 c 1.11 -1.608 3.149 -3.72 6.555 -4.642 c 6.224 -1.681 12.659 2.009 14.343 8.232 c 0.816 3.016 0.409 6.168 -1.146 8.877 s -4.072 4.65 -7.087 5.467 c -3.406 0.92 -6.231 0.127 -8.001 -0.701 c -3.75 -1.754 -8.216 -0.14 -9.973 3.611 c -1.756 3.752 -0.139 8.217 3.612 9.973 c 3.569 1.671 7.441 2.52 11.328 2.52 c 0.281 0 0.562 -0.019 0.843 -0.028 v 34.62 h -23.581 v -12.009 c 0 -4.143 -3.358 -7.5 -7.5 -7.5 h -4.726 v -12.169 c 0 -8.884 -6.655 -16.356 -15.48 -17.383 l -25.327 -2.943 v -35.814 c 0 -21.122 17.184 -38.306 38.307 -38.306 z m -41.799 103.406 v -14.592 l 27.087 3.148 c 1.261 0.146 2.211 1.214 2.211 2.482 v 13.802 h -24.459 c -2.668 0.001 -4.839 -2.171 -4.839 -4.84 z m -176.945 169.435 l -1.761 -19.624 l 12.05 -1.382 c 0.163 7.059 2.336 13.626 5.975 19.151 c -5.028 0.575 -10.555 1.205 -16.264 1.855 z m -79.504 -111.592 l 0.733 11.58 l -6.169 -8.281 c -13.001 -17.453 -37.187 -21.751 -55.322 -10.398 l 0.045 -2.15 c 0.126 -5.997 5.109 -10.876 11.108 -10.876 h 28.165 c 11.308 -0.001 20.726 8.84 21.44 20.125 z m 32.389 -54.551 c -6.089 5.39 -17.398 3.982 -24.751 2.053 c 0.387 -2.856 1.22 -6.652 2.997 -10.591 c 4.36 -9.665 12.488 -16.149 24.182 -19.302 c 2.368 10.816 2.858 23.159 -2.428 27.84 z m -80.032 -67.369 c -6.881 -1.862 -15.379 -1.189 -21.564 2.36 c -0.003 0.002 -0.007 0.004 -0.01 0.006 c -3.028 -15.679 -1.507 -29.163 4.478 -37.319 c 5.6 -7.632 15.576 -11.501 29.651 -11.501 c 15.213 0 29.019 -0.552 41.031 -1.639 c 0.178 -0.017 0.355 -0.039 0.531 -0.067 c 6.434 -1.05 12.667 -3.618 18.556 -7.642 l -0.417 5.504 c -0.158 2.081 0.559 4.135 1.979 5.665 c 1.419 1.531 3.413 2.401 5.5 2.401 c 5.415 0 10.539 -2.183 15.259 -6.494 c 0 0 -0.184 15.11 -0.099 15.883 c 0.59 5.357 -1.688 10.146 -6.968 14.636 c -24.221 20.607 -67.427 -0.038 -67.852 -0.246 c -2.326 -1.139 -5.073 -0.997 -7.268 0.373 c -2.196 1.37 -3.53 3.775 -3.53 6.363 c 0 2.319 0 9.374 -9.277 11.717 z m 13.679 10.343 c 4.09 -2.871 6.965 -6.958 8.749 -11.602 c 12.104 4.437 34.465 10.547 55.046 4.969 v 21.656 c -26.004 7.508 -35.23 27.53 -37.144 41.92 h -8.389 c -4.142 0 -7.5 3.357 -7.5 7.5 v 12.009 h -23.581 v -36.219 c 0.733 -0.268 1.46 -0.559 2.171 -0.892 c 3.751 -1.756 5.368 -6.221 3.612 -9.973 c -1.757 -3.751 -6.222 -5.367 -9.973 -3.611 c -1.77 0.827 -4.597 1.622 -8.001 0.701 c -3.016 -0.816 -5.532 -2.758 -7.087 -5.467 s -1.962 -5.861 -1.146 -8.877 c 0.816 -3.015 2.757 -5.531 5.466 -7.086 c 2.709 -1.557 5.861 -1.961 8.878 -1.146 c 3.405 0.922 5.444 3.033 6.555 4.643 c 2.354 3.407 7.023 4.264 10.433 1.91 c 3.409 -2.355 4.264 -7.026 1.911 -10.435 z m 5.105 193.336 c -0.698 0.521 -1.422 0.508 -1.794 0.454 c -0.37 -0.055 -1.069 -0.25 -1.589 -0.948 l -27.785 -37.299 c -4.235 -5.685 -6.002 -12.677 -4.977 -19.691 s 4.72 -13.209 10.404 -17.443 c 4.751 -3.539 10.308 -5.245 15.821 -5.245 c 8.104 0 16.112 3.69 21.314 10.674 l 27.785 37.298 c 0.521 0.699 0.508 1.424 0.454 1.794 s -0.249 1.069 -0.948 1.59 z m 20.295 3.586 l 15.81 -11.777 l 15.596 20.937 c 1.425 1.913 3.662 3.02 6.014 3.02 c 0.284 0 0.569 -0.016 0.855 -0.049 l 33.124 -3.798 l 1.76 19.612 c -21.162 2.408 -41.059 4.663 -43.995 4.969 c -2.986 -0.094 -5.809 -1.561 -7.599 -3.964 z m 134.798 25.857 c -11.834 0 -21.463 -9.629 -21.463 -21.464 s 9.628 -21.463 21.463 -21.463 s 21.463 9.628 21.463 21.463 s -9.629 21.464 -21.463 21.464 z m 31.415 -2.984 c 3.202 -5.423 5.048 -11.739 5.048 -18.48 c 0 -6.74 -1.845 -13.054 -5.046 -18.476 c 3.271 -1.933 7.003 -2.987 10.887 -2.987 c 6.243 0 12.168 2.749 16.227 7.43 l -3.604 31.372 c -3.68 2.691 -8.016 4.125 -12.623 4.125 c -3.873 0 -7.614 -1.051 -10.889 -2.984 z m 39.913 9.429 c -0.896 -0.103 -1.433 -0.626 -1.673 -0.929 c -0.241 -0.303 -0.629 -0.945 -0.526 -1.841 l 4.339 -37.773 c 0.157 -1.368 1.4 -2.353 2.768 -2.198 l 52.335 6 c 2.651 0.305 5.271 -0.828 6.869 -2.971 l 44.628 -59.91 c 2.807 -3.768 6.853 -6.531 11.416 -7.831 c 11.314 5.158 19.699 14.374 27.191 23.109 c -0.42 3.772 -1.821 7.357 -4.105 10.424 l -19.874 26.679 c -2.475 3.321 -1.788 8.021 1.534 10.495 c 1.345 1.002 2.917 1.485 4.475 1.485 c 2.289 0 4.548 -1.043 6.021 -3.02 l 18.86 -25.318 l 2.905 137.716 h -77.091 l 1.182 -18.67 h 35.212 c 4.142 0 7.5 -3.357 7.5 -7.5 v -27.149 c 0 -3.052 -1.85 -5.8 -4.677 -6.948 c -6.257 -2.542 -10.35 -7.302 -12.207 -14.119 l 6.863 -9.213 c 2.367 -3.178 1.854 -7.649 -1.172 -10.208 c -0.111 -0.094 -0.224 -0.185 -0.355 -0.287 c -3.111 -2.608 -7.751 -2.268 -10.447 0.797 c -0.717 0.815 -1.226 1.742 -1.529 2.716 l -11.804 15.847 c -4.041 5.423 -10.489 8.66 -17.25 8.66 c -0.821 0 -71.388 -8.043 -71.388 -8.043 z m 96.47 13.049 c 2.653 4.561 6.605 9.038 12.496 12.424 v 14.975 h -26.763 l 1.233 -19.479 c 4.83 -1.697 9.287 -4.387 13.034 -7.92 z m 83.98 -91.42 c -4.904 2.678 -8.859 -0.677 -19.911 -13.627 c -10.97 -12.854 -24.623 -28.853 -47.394 -33.391 c -4.063 -0.812 -8.012 1.828 -8.821 5.89 c -0.225 1.131 -0.175 2.251 0.09 3.299 c -2.923 2.137 -5.53 4.7 -7.703 7.617 l -5.547 7.446 l 1.045 -16.51 c 0.714 -11.285 10.132 -20.126 21.439 -20.126 c 0.135 0 0.267 -0.013 0.4 -0.02 c 0.133 0.007 0.265 0.02 0.4 0.02 h 64.143 c 5.315 0 9.847 3.976 10.542 9.248 c 3.496 26.519 0.249 45.268 -8.683 50.154 z"
           transform=" translate(-256.01, -256.01)"
           style="stroke: none; stroke-width: 1; stroke-dasharray: none; stroke-linecap: butt; stroke-dashoffset: 0; stroke-linejoin: miter; stroke-miterlimit: 4; fill: rgb(0,0,0); fill-rule: nonzero; opacity: 1;" /></g><g
         id="g187"
         transform="matrix(1 0 0 1 -59.05 -43.44)"><path
           id="path185"
           stroke-linecap="round"
           d="m 201.271 205.065 h -8.635 c -4.142 0 -7.5 3.357 -7.5 7.5 s 3.358 7.5 7.5 7.5 h 8.635 c 4.142 0 7.5 -3.357 7.5 -7.5 s -3.358 -7.5 -7.5 -7.5 z"
           transform=" translate(-196.95, -212.56)"
           style="stroke: none; stroke-width: 1; stroke-dasharray: none; stroke-linecap: butt; stroke-dashoffset: 0; stroke-linejoin: miter; stroke-miterlimit: 4; fill: rgb(0,0,0); fill-rule: nonzero; opacity: 1;" /></g><g
         id="g191"
         transform="matrix(1 0 0 1 -59.05 -19.46)"><path
           id="path189"
           stroke-linecap="round"
           d="m 201.271 229.047 h -8.635 c -4.142 0 -7.5 3.357 -7.5 7.5 s 3.358 7.5 7.5 7.5 h 8.635 c 4.142 0 7.5 -3.357 7.5 -7.5 s -3.358 -7.5 -7.5 -7.5 z"
           transform=" translate(-196.95, -236.55)"
           style="stroke: none; stroke-width: 1; stroke-dasharray: none; stroke-linecap: butt; stroke-dashoffset: 0; stroke-linejoin: miter; stroke-miterlimit: 4; fill: rgb(0,0,0); fill-rule: nonzero; opacity: 1;" /></g><g
         id="g195"
         transform="matrix(1 0 0 1 -148.72 -166.4)"><path
           id="path193"
           stroke-linecap="round"
           d="m 107.304 97.107 c 4.142 0 7.5 -3.357 7.5 -7.5 s -3.358 -7.5 -7.5 -7.5 h -0.091 c -4.142 0 -7.454 3.357 -7.454 7.5 s 3.403 7.5 7.545 7.5 z"
           transform=" translate(-107.28, -89.61)"
           style="stroke: none; stroke-width: 1; stroke-dasharray: none; stroke-linecap: butt; stroke-dashoffset: 0; stroke-linejoin: miter; stroke-miterlimit: 4; fill: rgb(0,0,0); fill-rule: nonzero; opacity: 1;" /></g></g></g><g
     id="logo-name"
     style=""
     transform="matrix(1.95 0 0 1.95 254.89 205.53)"><linearGradient
       y2="33.89999999999999"
       x2="0"
       y1="0"
       x1="0"
       gradientTransform="matrix(1 0 0 1 -39.19 -16.95)"
       gradientUnits="userSpaceOnUse"
       id="SVGID_5"><stop
         id="stop200"
         style="stop-color:rgb(25,118,210);stop-opacity: 1"
         offset="0%" /></linearGradient><text
       id="text205"
       style="stroke: none; stroke-width: 1; stroke-dasharray: none; stroke-linecap: butt; stroke-dashoffset: 0; stroke-linejoin: miter; stroke-miterlimit: 4; fill: url(#SVGID_5); fill-rule: nonzero; opacity: 1; white-space: pre;"
       font-weight="normal"
       font-style="normal"
       font-size="30"
       font-family="Pompiere"
       xml:space="preserve"><tspan
         id="tspan203"
         y="9.42"
         x="-39.19">HOPE</tspan></text>
</g></svg>